{"title":"Birdman, R. Kelly, Lil Wayne - We Been On [2013/MOV]","uid":9468276,"size":388689080,"categoryP":"video","categoryS":"music_videos","magnet":"?xt=urn:btih:e5ceb293ed024eb422ed48efd0ac352ac9679560&amp;dn=Birdman%2C+R.+Kelly%2C+Lil+Wayne+-+We+Been+On+%5B2013%2FMOV%5D&amp;tr=udp%3A%2F%2Ftracker.openbittorrent.com%3A80&amp;tr=udp%3A%2F%2Fopen.demonii.com%3A1337&amp;tr=udp%3A%2F%2Ftracker.coppersurfer.tk%3A6969&amp;tr=udp%3A%2F%2Fexodus.desync.com%3A6969","seeders":1,"leechers":0,"uploader":"torrent-cracker","files":-1,"time":1389502250,"description":"Preview: &lt;a href=&quot;\nhttp://moevideo.net/video/68690.67b1256f00630e97974ded68c04f&quot; rel=&quot;nofollow&quot; target=&quot;_NEW&quot;&gt;\nhttp://moevideo.net/video/68690.67b1256f00630e97974ded68c04f&lt;/a&gt;\n\n\nGeneral\nComplete name                            : Rich Gang ft. Birdman, R. Kelly &amp; Lil Wayne - We Been On (aac-avc-1080p).mov\nFormat                                   : MPEG-4\nFormat profile                           : QuickTime\nCodec ID                                 : qt  \nFile size                                : 371 MiB\nDuration                                 : 5mn 42s\nOverall bit rate mode                    : Variable\nOverall bit rate                         : 9 071 Kbps\nEncoded date                             : UTC 2013-09-06 00:29:57\nTagged date                              : UTC 2013-09-06 00:30:20\nWriting library                          : Apple QuickTime\nMedia/UUID                               : 084076B9-64BA-45DD-9579-F0E771C89DEA\nMedia/History/UUID                       : E0AF9EB6-DFC0-4523-B014-CF16258DFBA3\n\nVideo\nID                                       : 1\nFormat                                   : AVC\nFormat/Info                              : Advanced Video Codec\nFormat profile                           : &lt;a class=&quot;__cf_email__&quot; href=&quot;/cdn-cgi/l/email-protection&quot; data-cfemail=&quot;80cde1e9eec0ccb4aeb1&quot;&gt;[email&amp;#160;protected]&lt;/a&gt;&lt;script cf-hash='f9e31' type=&quot;text/javascript&quot;&gt;\n/* &lt;![CDATA[ */!function(){try{var t=&quot;currentScript&quot;in document?document.currentScript:function(){for(var t=document.getElementsByTagName(&quot;script&quot;),e=t.length;e--;)if(t[e].getAttribute(&quot;cf-hash&quot;))return t[e]}();if(t&amp;&amp;t.previousSibling){var e,r,n,i,c=t.previousSibling,a=c.getAttribute(&quot;data-cfemail&quot;);if(a){for(e=&quot;&quot;,r=parseInt(a.substr(0,2),16),n=2;a.length-n;n+=2)i=parseInt(a.substr(n,2),16)^r,e+=String.fromCharCode(i);e=document.createTextNode(e),c.parentNode.replaceChild(e,c)}}}catch(u){}}();/* ]]&gt; */&lt;/script&gt;\nFormat settings, CABAC                   : No\nFormat settings, ReFrames                : 2 frames\nCodec ID                                 : avc1\nCodec ID/Info                            : Advanced Video Coding\nDuration                                 : 5mn 42s\nBit rate mode                            : Variable\nBit rate                                 : 8 753 Kbps\nMaximum bit rate                         : 10.2 Mbps\nWidth                                    : 1 888 pixels\nOriginal width                           : 1 920 pixels\nHeight                                   : 1 062 pixels\nOriginal height                          : 1 080 pixels\nDisplay aspect ratio                     : 16:9\nFrame rate mode                          : Constant\nFrame rate                               : 23.976 fps\nColor space                              : YUV\nChroma subsampling                       : 4:2:0\nBit depth                                : 8 bits\nScan type                                : Progressive\nBits/(Pixel*Frame)                       : 0.182\nStream size                              : 358 MiB (96%)\nLanguage                                 : English\nEncoded date                             : UTC 2013-09-06 00:29:57\nTagged date                              : UTC 2013-09-06 00:30:20\nColor primaries                          : BT.709\nTransfer characteristics                 : BT.709\nMatrix coefficients                      : BT.709\n\nAudio\nID                                       : 2\nFormat                                   : AAC\nFormat/Info                              : Advanced Audio Codec\nFormat profile                           : LC\nCodec ID                                 : 40\nDuration                                 : 5mn 42s\nSource duration                          : 5mn 42s\nBit rate mode                            : Constant\nBit rate                                 : 320 Kbps\nChannel(s)                               : 2 channels\nChannel positions                        : Front: L R\nSampling rate                            : 48.0 KHz\nCompression mode                         : Lossy\nStream size                              : 12.8 MiB (3%)\nSource stream size                       : 12.8 MiB (3%)\nLanguage                                 : English\nEncoded date                             : UTC 2013-09-06 00:29:57\nTagged date                              : UTC 2013-09-06 00:30:20\n\nOther\nID                                       : 3\nType                                     : Time code\nFormat                                   : QuickTime TC\nDuration                                 : 5mn 42s\nTime code of first frame                 : 01:00:10:00\nTime code settings                       : Striped\nLanguage                                 : English\nEncoded date                             : UTC 2013-09-06 00:29:57\nTagged date                              : UTC 2013-09-06 00:30:20","torrent":{"xt":"urn:btih:e5ceb293ed024eb422ed48efd0ac352ac9679560","amp;dn":"Birdman%2C+R.+Kelly%2C+Lil+Wayne+-+We+Been+On+%5B2013%2FMOV%5D","amp;tr":["udp%3A%2F%2Ftracker.openbittorrent.com%3A80","udp%3A%2F%2Fopen.demonii.com%3A1337","udp%3A%2F%2Ftracker.coppersurfer.tk%3A6969","udp%3A%2F%2Fexodus.desync.com%3A6969"],"infoHash":"e5ceb293ed024eb422ed48efd0ac352ac9679560","infoHashBuffer":{"type":"Buffer","data":[229,206,178,147,237,2,78,180,34,237,72,239,208,172,53,42,201,103,149,96]},"announce":[],"urlList":[]}}